<?xml version="1.0" encoding="UTF-8" standalone="no"?>
<!DOCTYPE svg PUBLIC "-//W3C//DTD SVG 1.1//EN" "http://www.w3.org/Graphics/SVG/1.1/DTD/svg11.dtd">
<svg width="100%" height="100%" viewBox="0 0 2020 988" version="1.1" xmlns="http://www.w3.org/2000/svg" xmlns:xlink="http://www.w3.org/1999/xlink" xml:space="preserve" xmlns:serif="http://www.serif.com/" style="fill-rule:evenodd;clip-rule:evenodd;stroke-linejoin:round;stroke-miterlimit:2;">
    <g transform="matrix(4.16667,0,0,4.16667,-744.287,-749.179)">
        <path d="M382.014,331.505L407.48,331.505L394.794,308.372L382.014,331.505ZM356.829,358.185L391.342,295.779L398.152,295.779L432.667,358.185L422.126,358.185L412.612,340.834L376.884,340.834L367.369,358.185L356.829,358.185Z" style="fill:rgb(83,83,83);fill-rule:nonzero;"/>
    </g>
    <g transform="matrix(4.16667,0,0,4.16667,-744.287,-749.179)">
        <path d="M494.185,309.118C493.904,308.372 493.481,307.718 492.923,307.16C492.174,306.412 491.159,305.915 489.884,305.667C488.607,305.419 486.504,305.294 483.573,305.294L463.754,305.294C460.823,305.294 458.751,305.419 457.536,305.667C456.32,305.915 455.276,306.412 454.404,307.16C453.718,307.782 453.235,308.512 452.954,309.351C452.674,310.191 452.535,311.326 452.535,312.755L452.535,314.995C452.535,316.426 452.674,317.559 452.954,318.401C453.235,319.24 453.718,319.97 454.404,320.592C455.275,321.338 456.317,321.836 457.534,322.085C458.749,322.333 460.819,322.455 463.75,322.455L486.083,322.455C489.634,322.455 492.516,322.801 494.728,323.483C496.939,324.167 498.792,325.319 500.289,326.936C503.278,329.92 504.774,334.025 504.774,339.246L504.774,341.488C504.774,343.912 504.384,346.199 503.607,348.342C502.829,350.489 501.727,352.278 500.297,353.706C498.805,355.325 496.952,356.475 494.746,357.158C492.537,357.845 489.662,358.185 486.117,358.185L461.21,358.185C458.226,358.185 455.628,357.922 453.421,357.392C451.214,356.864 449.362,355.994 447.87,354.78C446.377,353.568 445.212,352.029 444.373,350.162C443.533,348.296 442.926,345.996 442.554,343.259L452.442,341.953C452.565,343.259 452.769,344.301 453.049,345.078C453.329,345.857 453.75,346.494 454.312,346.99C455.06,347.738 456.073,348.236 457.349,348.483C458.626,348.733 460.73,348.855 463.661,348.855L483.389,348.855C484.882,348.855 486.128,348.827 487.126,348.764C488.123,348.702 488.966,348.61 489.65,348.483C490.335,348.36 490.913,348.173 491.38,347.922C491.846,347.677 492.299,347.364 492.737,346.99C493.421,346.37 493.905,345.638 494.185,344.799C494.465,343.958 494.607,342.857 494.607,341.488L494.607,339.155C494.607,337.788 494.467,336.682 494.187,335.844C493.905,335.005 493.423,334.273 492.74,333.651C492.305,333.277 491.854,332.968 491.388,332.718C490.921,332.471 490.346,332.285 489.662,332.159C488.977,332.036 488.138,331.942 487.145,331.879C486.148,331.819 484.903,331.786 483.412,331.786L461.21,331.786C457.665,331.786 454.788,331.446 452.581,330.76C450.374,330.076 448.491,328.925 446.938,327.307C445.507,325.878 444.419,324.091 443.673,321.945C442.926,319.799 442.554,317.482 442.554,314.995L442.554,312.755C442.554,310.269 442.926,307.953 443.673,305.807C444.419,303.662 445.507,301.874 446.938,300.443C448.491,298.827 450.374,297.676 452.581,296.992C454.788,296.307 457.665,295.965 461.21,295.965L486.117,295.965C489.163,295.965 491.776,296.229 493.953,296.759C496.129,297.287 497.963,298.157 499.456,299.369C500.949,300.582 502.114,302.137 502.954,304.035C503.793,305.933 504.401,308.217 504.774,310.89L494.792,312.197C494.667,310.89 494.465,309.865 494.185,309.118Z" style="fill:rgb(83,83,83);fill-rule:nonzero;"/>
    </g>
    <g transform="matrix(4.16667,0,0,4.16667,-744.287,-749.179)">
        <path d="M539.848,331.505L565.314,331.505L552.628,308.372L539.848,331.505ZM514.663,358.185L549.176,295.779L555.985,295.779L590.501,358.185L579.96,358.185L570.445,340.834L534.719,340.834L525.202,358.185L514.663,358.185Z" style="fill:rgb(83,83,83);fill-rule:nonzero;"/>
    </g>
    <g transform="matrix(4.16667,0,0,4.16667,-744.287,-749.179)">
        <path d="M642.085,330.2C643.578,330.2 644.821,330.185 645.815,330.153C646.81,330.123 647.65,330.029 648.335,329.873C649.018,329.718 649.594,329.515 650.061,329.267C650.526,329.019 650.978,328.708 651.414,328.334C652.097,327.712 652.578,326.982 652.859,326.143C653.139,325.302 653.278,324.167 653.278,322.739L653.278,312.756C653.278,311.327 653.139,310.191 652.859,309.351C652.578,308.512 652.097,307.782 651.414,307.161C650.978,306.787 650.526,306.475 650.061,306.226C649.594,305.978 649.018,305.777 648.335,305.62C647.65,305.465 646.81,305.373 645.815,305.339C644.821,305.311 643.578,305.293 642.085,305.293L611.022,305.293L611.022,330.2L642.085,330.2ZM644.603,295.965C648.085,295.965 650.93,296.307 653.139,296.992C655.345,297.677 657.258,298.827 658.876,300.442C660.493,301.996 661.628,303.864 662.281,306.039C662.935,308.218 663.261,311.078 663.261,314.621L663.261,320.872C663.261,324.416 662.935,327.279 662.281,329.453C661.628,331.631 660.493,333.496 658.876,335.05C657.258,336.668 655.345,337.818 653.139,338.502C650.93,339.187 648.085,339.528 644.603,339.528L611.022,339.528L611.022,358.184L601.04,358.184L601.04,295.965L644.603,295.965Z" style="fill:rgb(83,83,83);fill-rule:nonzero;"/>
    </g>
    <g transform="matrix(4.16667,0,0,4.16667,-744.287,-749.179)">
        <path d="M363.656,373.361L360.712,381.405L366.601,381.405L363.656,373.361ZM359.848,383.78L358.931,386.246C358.698,386.865 358.583,387.097 358.324,387.305C358.118,387.471 357.859,387.576 357.562,387.576C357.175,387.576 356.787,387.42 356.542,387.162C356.013,386.62 356.18,386.037 356.452,385.315L362.082,370.326C362.274,369.796 362.416,369.577 362.636,369.37C362.908,369.112 363.217,368.984 363.656,368.984C364.096,368.984 364.405,369.112 364.676,369.37C364.895,369.577 365.038,369.796 365.231,370.326L370.861,385.315C371.132,386.037 371.3,386.62 370.77,387.162C370.524,387.42 370.138,387.576 369.75,387.576C369.453,387.576 369.195,387.471 368.988,387.305C368.73,387.097 368.614,386.865 368.382,386.246L367.465,383.78L359.848,383.78Z" style="fill:rgb(83,83,83);fill-rule:nonzero;"/>
    </g>
    <g transform="matrix(4.16667,0,0,4.16667,-744.287,-749.179)">
        <path d="M381.779,374.379C382.372,374.379 382.631,374.431 382.915,374.599C383.289,374.819 383.445,375.167 383.445,375.517C383.445,375.967 383.302,376.265 382.915,376.794L376.885,385.095L381.856,385.095C382.425,385.095 382.67,385.121 382.928,385.276C383.25,385.471 383.471,385.832 383.471,386.286C383.471,386.736 383.25,387.098 382.928,387.291C382.67,387.433 382.425,387.471 381.856,387.471L375.077,387.471C374.548,387.471 374.238,387.433 373.942,387.252C373.593,387.059 373.425,386.684 373.425,386.324C373.425,385.87 373.542,385.614 373.955,385.043L379.958,376.756L375.361,376.756C374.794,376.756 374.548,376.718 374.29,376.576C373.968,376.382 373.748,376.019 373.748,375.568C373.748,375.115 373.968,374.756 374.29,374.56C374.548,374.406 374.794,374.379 375.361,374.379L381.779,374.379Z" style="fill:rgb(83,83,83);fill-rule:nonzero;"/>
    </g>
    <g transform="matrix(4.16667,0,0,4.16667,-744.287,-749.179)">
        <path d="M394.752,378.073C394.313,377.091 393.41,376.42 392.17,376.42C390.905,376.42 390.001,377.091 389.562,378.073C389.303,378.64 389.252,379.055 389.226,379.855L395.113,379.855C395.062,379.055 395.01,378.64 394.752,378.073ZM392.17,374.225C395.59,374.225 397.631,376.717 397.708,380.177C397.721,380.565 397.67,381.03 397.346,381.352C397.012,381.688 396.573,381.688 396.186,381.688L389.226,381.688C389.226,383.922 390.4,385.379 392.583,385.379C393.5,385.379 394.391,385.121 395.1,384.552C395.501,384.232 395.836,384.076 396.173,384.076C396.702,384.076 397.256,384.594 397.256,385.199C397.256,385.806 396.585,386.375 395.94,386.787C395.113,387.329 393.926,387.625 392.519,387.625C389.252,387.625 386.617,385.91 386.617,380.926C386.617,376.615 388.826,374.225 392.17,374.225Z" style="fill:rgb(83,83,83);fill-rule:nonzero;"/>
    </g>
    <g transform="matrix(4.16667,0,0,4.16667,-744.287,-749.179)">
        <path d="M407.892,374.225C408.861,374.225 409.558,374.406 410.19,374.832C410.642,375.129 410.978,375.517 410.978,376.02C410.978,376.395 410.824,376.742 410.591,376.975C410.371,377.195 410.022,377.337 409.687,377.337C409.416,377.337 409.118,377.247 408.667,376.988C408.227,376.742 407.762,376.602 407.246,376.602C405.748,376.602 404.574,377.711 404.574,379.531L404.574,385.781C404.574,386.413 404.536,386.645 404.38,386.954C404.2,387.304 403.826,387.575 403.256,387.575C402.689,387.575 402.315,387.304 402.134,386.954C401.979,386.645 401.94,386.413 401.94,385.781L401.94,376.083C401.94,375.36 401.991,375.129 402.173,374.832C402.392,374.483 402.818,374.277 403.256,374.277C403.683,374.277 404.083,374.445 404.329,374.793C404.47,375 404.536,375.193 404.561,375.749C405.297,374.832 406.523,374.225 407.892,374.225Z" style="fill:rgb(83,83,83);fill-rule:nonzero;"/>
    </g>
    <g transform="matrix(4.16667,0,0,4.16667,-744.287,-749.179)">
        <path d="M419.419,376.601C417.029,376.601 416.694,378.602 416.694,380.926C416.694,383.251 417.029,385.251 419.419,385.251C421.794,385.251 422.131,383.251 422.131,380.926C422.131,378.602 421.794,376.601 419.419,376.601ZM414.074,370.779C414.074,370.145 414.112,369.913 414.267,369.602C414.448,369.254 414.822,368.984 415.39,368.984C415.959,368.984 416.334,369.254 416.513,369.602C416.668,369.913 416.707,370.145 416.707,370.779L416.707,375.698C417.663,374.561 418.747,374.225 420.142,374.225C421.458,374.225 422.596,374.664 423.317,375.386C424.583,376.678 424.764,378.768 424.764,380.912C424.764,383.082 424.583,385.173 423.317,386.465C422.596,387.189 421.433,387.625 420.117,387.625C418.747,387.625 417.663,387.279 416.694,386.128C416.668,386.671 416.604,386.864 416.462,387.059C416.216,387.408 415.817,387.576 415.39,387.576C414.951,387.576 414.525,387.37 414.307,387.019C414.125,386.723 414.074,386.491 414.074,385.767L414.074,370.779Z" style="fill:rgb(83,83,83);fill-rule:nonzero;"/>
    </g>
    <g transform="matrix(4.16667,0,0,4.16667,-744.287,-749.179)">
        <path d="M433.127,385.433C434.07,385.433 434.845,385.328 435.516,384.684C435.929,384.295 436.097,383.702 436.097,382.734L436.097,381.702L432.997,381.702C431.448,381.702 430.661,382.372 430.661,383.585C430.661,384.775 431.462,385.433 433.127,385.433ZM432.624,379.829L436.097,379.829L436.097,379.015C436.097,377.299 435.284,376.46 433.359,376.46C432.314,376.46 431.616,376.756 430.854,377.337C430.52,377.595 430.146,377.685 429.899,377.685C429.628,377.685 429.332,377.569 429.138,377.337C428.918,377.09 428.827,376.871 428.827,376.524C428.827,375.929 429.383,375.399 430.055,375.013C430.971,374.483 432.03,374.226 433.385,374.226C436.897,374.226 438.742,375.761 438.742,378.731L438.742,385.781C438.742,386.427 438.717,386.671 438.55,386.968C438.355,387.329 437.93,387.575 437.426,387.575C437.001,387.575 436.677,387.42 436.471,387.201C436.316,387.018 436.199,386.813 436.174,386.258C435.142,387.266 434.264,387.614 432.662,387.614C431.023,387.614 429.925,387.24 429.138,386.427C428.467,385.742 428.093,384.736 428.093,383.624C428.093,381.43 429.653,379.829 432.624,379.829Z" style="fill:rgb(83,83,83);fill-rule:nonzero;"/>
    </g>
    <g transform="matrix(4.16667,0,0,4.16667,-744.287,-749.179)">
        <path d="M446.009,386.955C445.829,387.304 445.454,387.575 444.886,387.575C444.317,387.575 443.943,387.304 443.763,386.955C443.606,386.645 443.568,386.413 443.568,385.781L443.568,376.071C443.568,375.438 443.606,375.206 443.763,374.897C443.943,374.547 444.317,374.277 444.886,374.277C445.454,374.277 445.829,374.547 446.009,374.897C446.164,375.206 446.202,375.438 446.202,376.071L446.202,385.781C446.202,386.413 446.164,386.645 446.009,386.955ZM444.886,368.518C445.763,368.518 446.474,369.229 446.474,370.106C446.474,370.985 445.763,371.695 444.886,371.695C444.007,371.695 443.297,370.985 443.297,370.106C443.297,369.229 444.007,368.518 444.886,368.518Z" style="fill:rgb(83,83,83);fill-rule:nonzero;"/>
    </g>
    <g transform="matrix(4.16667,0,0,4.16667,-744.287,-749.179)">
        <path d="M452.475,368.519C453.353,368.519 454.063,369.229 454.063,370.107C454.063,370.985 453.353,371.696 452.475,371.696C451.598,371.696 450.887,370.985 450.887,370.107C450.887,369.229 451.598,368.519 452.475,368.519ZM451.158,376.071C451.158,375.439 451.196,375.206 451.353,374.897C451.532,374.547 451.907,374.277 452.475,374.277C453.043,374.277 453.418,374.547 453.599,374.897C453.753,375.206 453.791,375.439 453.791,376.071L453.791,389.19C453.791,391.113 452.708,392.816 450.241,392.816L449.982,392.816C449.454,392.816 449.105,392.74 448.873,392.61C448.563,392.443 448.344,392.134 448.344,391.693C448.344,391.255 448.563,390.932 448.873,390.763C449.105,390.635 449.402,390.597 449.828,390.584C450.796,390.558 451.158,389.977 451.158,389.073L451.158,376.071Z" style="fill:rgb(83,83,83);fill-rule:nonzero;"/>
    </g>
    <g transform="matrix(4.16667,0,0,4.16667,-744.287,-749.179)">
        <path d="M462.766,385.433C463.708,385.433 464.482,385.328 465.153,384.684C465.565,384.295 465.733,383.702 465.733,382.734L465.733,381.702L462.634,381.702C461.086,381.702 460.299,382.372 460.299,383.585C460.299,384.775 461.1,385.433 462.766,385.433ZM462.261,379.829L465.733,379.829L465.733,379.015C465.733,377.299 464.92,376.46 462.997,376.46C461.952,376.46 461.254,376.756 460.492,377.337C460.155,377.595 459.781,377.685 459.537,377.685C459.265,377.685 458.969,377.569 458.775,377.337C458.556,377.09 458.464,376.871 458.464,376.524C458.464,375.929 459.02,375.399 459.692,375.013C460.607,374.483 461.667,374.226 463.022,374.226C466.534,374.226 468.379,375.761 468.379,378.731L468.379,385.781C468.379,386.427 468.354,386.671 468.187,386.968C467.993,387.329 467.566,387.575 467.063,387.575C466.638,387.575 466.314,387.42 466.108,387.201C465.952,387.018 465.837,386.813 465.811,386.258C464.778,387.266 463.899,387.614 462.299,387.614C460.66,387.614 459.563,387.24 458.775,386.427C458.104,385.742 457.729,384.736 457.729,383.624C457.729,381.43 459.29,379.829 462.261,379.829Z" style="fill:rgb(83,83,83);fill-rule:nonzero;"/>
    </g>
    <g transform="matrix(4.16667,0,0,4.16667,-744.287,-749.179)">
        <path d="M475.839,385.781C475.839,386.413 475.8,386.646 475.646,386.955C475.465,387.305 475.092,387.576 474.523,387.576C473.954,387.576 473.581,387.305 473.4,386.955C473.244,386.646 473.206,386.413 473.206,385.781L473.206,376.084C473.206,375.361 473.256,375.128 473.438,374.832C473.657,374.483 474.083,374.276 474.523,374.276C474.948,374.276 475.35,374.445 475.594,374.794C475.723,374.987 475.8,375.18 475.826,375.659C476.73,374.703 477.971,374.226 479.275,374.226C480.616,374.226 481.728,374.663 482.502,375.412C483.51,376.395 483.818,377.633 483.818,379.106L483.818,385.781C483.818,386.413 483.78,386.646 483.625,386.955C483.444,387.305 483.069,387.576 482.502,387.576C481.934,387.576 481.559,387.305 481.378,386.955C481.224,386.646 481.185,386.413 481.185,385.781L481.185,379.492C481.185,377.453 480.024,376.601 478.552,376.601C477.079,376.601 475.839,377.479 475.839,379.492L475.839,385.781Z" style="fill:rgb(83,83,83);fill-rule:nonzero;"/>
    </g>
    <g transform="matrix(4.16667,0,0,4.16667,-744.287,-749.179)">
        <path d="M491.084,386.955C490.903,387.304 490.529,387.575 489.961,387.575C489.393,387.575 489.019,387.304 488.839,386.955C488.682,386.645 488.644,386.413 488.644,385.781L488.644,376.071C488.644,375.438 488.682,375.206 488.839,374.897C489.019,374.547 489.393,374.277 489.961,374.277C490.529,374.277 490.903,374.547 491.084,374.897C491.239,375.206 491.277,375.438 491.277,376.071L491.277,385.781C491.277,386.413 491.239,386.645 491.084,386.955ZM489.961,368.518C490.84,368.518 491.55,369.229 491.55,370.106C491.55,370.985 490.84,371.695 489.961,371.695C489.084,371.695 488.373,370.985 488.373,370.106C488.373,369.229 489.084,368.518 489.961,368.518Z" style="fill:rgb(83,83,83);fill-rule:nonzero;"/>
    </g>
    <g transform="matrix(4.16667,0,0,4.16667,-744.287,-749.179)">
        <path d="M512.281,382.308C512.281,381.482 512.075,380.835 511.558,380.396C511.092,379.983 510.475,379.751 509.556,379.62L507.374,379.311C505.89,379.093 504.768,378.627 503.901,377.827C502.985,376.988 502.546,375.8 502.546,374.303C502.546,371.1 504.87,368.932 508.691,368.932C510.435,368.932 511.494,369.215 513.017,370.016C513.662,370.351 514.14,370.829 514.14,371.424C514.14,371.72 514.037,372.016 513.817,372.276C513.609,372.522 513.339,372.675 512.966,372.675C512.667,372.675 512.216,372.507 511.841,372.276C510.745,371.604 509.879,371.372 508.587,371.372C506.419,371.372 505.257,372.546 505.257,374.226C505.257,374.896 505.438,375.518 505.929,375.929C506.394,376.344 506.936,376.601 507.943,376.756L510.137,377.09C511.815,377.349 512.745,377.737 513.544,378.459C514.526,379.364 515.043,380.629 515.043,382.231C515.043,385.614 512.307,387.626 508.433,387.626C506.225,387.626 504.844,387.202 503.488,386.388C502.533,385.82 502.185,385.433 502.185,384.76C502.185,384.45 502.327,384.089 502.571,383.844C502.804,383.611 503.089,383.507 503.385,383.507C503.746,383.507 504.069,383.623 504.571,383.974C505.813,384.825 506.896,385.148 508.484,385.148C510.911,385.148 512.281,384.114 512.281,382.308Z" style="fill:rgb(83,83,83);fill-rule:nonzero;"/>
    </g>
    <g transform="matrix(4.16667,0,0,4.16667,-744.287,-749.179)">
        <path d="M519.779,376.395L519.172,376.395C518.682,376.395 518.487,376.37 518.255,376.239C517.958,376.071 517.791,375.775 517.791,375.387C517.791,374.999 517.958,374.703 518.255,374.535C518.487,374.407 518.682,374.379 519.172,374.379L519.779,374.379L519.779,372.327C519.779,371.696 519.817,371.463 519.973,371.153C520.151,370.804 520.528,370.534 521.097,370.534C521.663,370.534 522.039,370.804 522.219,371.153C522.373,371.463 522.412,371.696 522.412,372.327L522.412,374.379L523.833,374.379C524.322,374.379 524.518,374.407 524.75,374.535C525.046,374.703 525.215,374.999 525.215,375.387C525.215,375.775 525.046,376.071 524.75,376.239C524.518,376.37 524.322,376.395 523.833,376.395L522.412,376.395L522.412,383.726C522.412,384.632 522.775,385.212 523.742,385.237C524.167,385.25 524.466,385.289 524.698,385.419C525.007,385.587 525.229,385.909 525.229,386.348C525.229,386.787 525.007,387.098 524.698,387.266C524.466,387.394 524.116,387.471 523.588,387.471L523.328,387.471C520.862,387.471 519.779,385.767 519.779,383.844L519.779,376.395Z" style="fill:rgb(83,83,83);fill-rule:nonzero;"/>
    </g>
    <g transform="matrix(4.16667,0,0,4.16667,-744.287,-749.179)">
        <path d="M536.934,376.072C536.934,375.438 536.973,375.205 537.13,374.896C537.311,374.546 537.683,374.276 538.251,374.276C538.821,374.276 539.194,374.546 539.374,374.896C539.529,375.205 539.568,375.438 539.568,376.072L539.568,385.767C539.568,386.491 539.517,386.722 539.336,387.019C539.117,387.369 538.689,387.576 538.251,387.576C537.825,387.576 537.426,387.408 537.181,387.059C537.051,386.865 536.973,386.671 536.946,386.194C536.044,387.15 534.805,387.625 533.501,387.625C532.156,387.625 531.047,387.189 530.272,386.439C529.265,385.458 528.956,384.218 528.956,382.745L528.956,376.072C528.956,375.438 528.994,375.205 529.149,374.896C529.33,374.546 529.705,374.276 530.272,374.276C530.841,374.276 531.214,374.546 531.396,374.896C531.551,375.205 531.59,375.438 531.59,376.072L531.59,382.36C531.59,384.399 532.751,385.251 534.223,385.251C535.695,385.251 536.934,384.372 536.934,382.36L536.934,376.072Z" style="fill:rgb(83,83,83);fill-rule:nonzero;"/>
    </g>
    <g transform="matrix(4.16667,0,0,4.16667,-744.287,-749.179)">
        <path d="M549.263,385.251C551.649,385.251 551.986,383.25 551.986,380.925C551.986,378.601 551.649,376.601 549.263,376.601C546.887,376.601 546.55,378.601 546.55,380.925C546.55,383.25 546.887,385.251 549.263,385.251ZM554.606,385.767C554.606,386.491 554.556,386.722 554.375,387.018C554.154,387.369 553.729,387.575 553.29,387.575C552.864,387.575 552.463,387.409 552.218,387.059C552.077,386.865 552.012,386.671 551.986,386.128C551.018,387.278 549.933,387.626 548.565,387.626C547.247,387.626 546.086,387.188 545.363,386.466C544.097,385.174 543.916,383.082 543.916,380.912C543.916,378.769 544.097,376.679 545.363,375.387C546.086,374.663 547.222,374.226 548.539,374.226C549.933,374.226 551.018,374.56 551.974,375.699L551.974,370.779C551.974,370.145 552.012,369.913 552.167,369.602C552.348,369.253 552.723,368.984 553.29,368.984C553.858,368.984 554.233,369.253 554.414,369.602C554.567,369.913 554.606,370.145 554.606,370.779L554.606,385.767Z" style="fill:rgb(83,83,83);fill-rule:nonzero;"/>
    </g>
    <g transform="matrix(4.16667,0,0,4.16667,-744.287,-749.179)">
        <path d="M567.023,378.073C566.583,377.091 565.681,376.42 564.441,376.42C563.175,376.42 562.271,377.091 561.834,378.073C561.574,378.64 561.522,379.055 561.497,379.855L567.384,379.855C567.333,379.055 567.281,378.64 567.023,378.073ZM564.441,374.225C567.862,374.225 569.901,376.717 569.979,380.177C569.992,380.565 569.939,381.03 569.618,381.352C569.284,381.688 568.844,381.688 568.457,381.688L561.497,381.688C561.497,383.922 562.673,385.379 564.854,385.379C565.771,385.379 566.661,385.121 567.371,384.552C567.772,384.232 568.107,384.076 568.445,384.076C568.973,384.076 569.528,384.594 569.528,385.199C569.528,385.806 568.856,386.375 568.211,386.787C567.384,387.329 566.198,387.625 564.789,387.625C561.522,387.625 558.889,385.91 558.889,380.926C558.889,376.615 561.098,374.225 564.441,374.225Z" style="fill:rgb(83,83,83);fill-rule:nonzero;"/>
    </g>
    <g transform="matrix(4.16667,0,0,4.16667,-744.287,-749.179)">
        <path d="M576.846,385.781C576.846,386.413 576.808,386.646 576.652,386.955C576.472,387.305 576.097,387.576 575.528,387.576C574.961,387.576 574.586,387.305 574.405,386.955C574.25,386.646 574.212,386.413 574.212,385.781L574.212,376.084C574.212,375.361 574.263,375.128 574.443,374.832C574.663,374.483 575.09,374.276 575.528,374.276C575.954,374.276 576.354,374.445 576.602,374.794C576.729,374.987 576.808,375.18 576.833,375.659C577.735,374.703 578.977,374.226 580.279,374.226C581.623,374.226 582.732,374.663 583.507,375.412C584.515,376.395 584.825,377.633 584.825,379.106L584.825,385.781C584.825,386.413 584.787,386.646 584.63,386.955C584.449,387.305 584.076,387.576 583.507,387.576C582.938,387.576 582.565,387.305 582.385,386.955C582.229,386.646 582.189,386.413 582.189,385.781L582.189,379.492C582.189,377.453 581.029,376.601 579.557,376.601C578.084,376.601 576.846,377.479 576.846,379.492L576.846,385.781Z" style="fill:rgb(83,83,83);fill-rule:nonzero;"/>
    </g>
    <g transform="matrix(4.16667,0,0,4.16667,-744.287,-749.179)">
        <path d="M590.191,376.395L589.585,376.395C589.096,376.395 588.899,376.37 588.668,376.239C588.372,376.071 588.204,375.775 588.204,375.387C588.204,374.999 588.372,374.703 588.668,374.535C588.899,374.407 589.096,374.379 589.585,374.379L590.191,374.379L590.191,372.327C590.191,371.696 590.229,371.463 590.385,371.153C590.565,370.804 590.94,370.534 591.509,370.534C592.076,370.534 592.451,370.804 592.632,371.153C592.787,371.463 592.825,371.696 592.825,372.327L592.825,374.379L594.245,374.379C594.735,374.379 594.931,374.407 595.162,374.535C595.458,374.703 595.628,374.999 595.628,375.387C595.628,375.775 595.458,376.071 595.162,376.239C594.931,376.37 594.735,376.395 594.245,376.395L592.825,376.395L592.825,383.726C592.825,384.632 593.188,385.212 594.156,385.237C594.581,385.25 594.879,385.289 595.111,385.419C595.42,385.587 595.641,385.909 595.641,386.348C595.641,386.787 595.42,387.098 595.111,387.266C594.879,387.394 594.53,387.471 594.001,387.471L593.741,387.471C591.276,387.471 590.191,385.767 590.191,383.844L590.191,376.395Z" style="fill:rgb(83,83,83);fill-rule:nonzero;"/>
    </g>
    <g transform="matrix(4.16667,0,0,4.16667,-744.287,-749.179)">
        <path d="M599.032,386.44C598.62,386.154 598.31,385.794 598.31,385.341C598.31,385.005 598.466,384.659 598.736,384.437C598.942,384.256 599.176,384.166 599.459,384.166C599.73,384.166 600.041,384.282 600.439,384.54C601.356,385.134 602.273,385.42 603.604,385.42C605.282,385.42 606.482,384.825 606.482,383.572C606.482,382.694 605.979,382.141 604.714,382.022L602.61,381.829C600.169,381.61 598.736,380.513 598.736,378.241C598.736,375.671 600.945,374.225 603.682,374.225C605.089,374.225 606.186,374.47 607.205,374.949C607.645,375.154 607.891,375.323 608.058,375.504C608.252,375.736 608.305,375.929 608.305,376.225C608.305,376.485 608.16,376.807 607.98,377C607.762,377.221 607.517,377.336 607.205,377.336C606.96,377.336 606.702,377.234 606.354,377.065C605.527,376.665 604.636,376.382 603.629,376.382C602.067,376.382 601.279,377.104 601.279,378.098C601.279,379.068 601.887,379.492 603.087,379.595L605.154,379.789C607.594,380.022 609.038,381.145 609.038,383.482C609.038,386.205 606.715,387.625 603.591,387.625C601.55,387.625 600.209,387.24 599.032,386.44Z" style="fill:rgb(83,83,83);fill-rule:nonzero;"/>
    </g>
    <g transform="matrix(4.16667,0,0,4.16667,-744.287,-749.179)">
        <path d="M624.024,385.433C624.967,385.433 625.741,385.328 626.412,384.684C626.827,384.295 626.995,383.702 626.995,382.734L626.995,381.702L623.896,381.702C622.346,381.702 621.559,382.372 621.559,383.585C621.559,384.775 622.358,385.433 624.024,385.433ZM623.522,379.829L626.995,379.829L626.995,379.015C626.995,377.299 626.182,376.46 624.256,376.46C623.211,376.46 622.514,376.756 621.752,377.337C621.417,377.595 621.043,377.685 620.796,377.685C620.526,377.685 620.23,377.569 620.034,377.337C619.815,377.09 619.726,376.871 619.726,376.524C619.726,375.929 620.281,375.399 620.951,375.013C621.869,374.483 622.928,374.226 624.282,374.226C627.795,374.226 629.641,375.761 629.641,378.731L629.641,385.781C629.641,386.427 629.615,386.671 629.448,386.968C629.253,387.329 628.827,387.575 628.323,387.575C627.897,387.575 627.574,387.42 627.368,387.201C627.214,387.018 627.098,386.813 627.072,386.258C626.04,387.266 625.161,387.614 623.561,387.614C621.92,387.614 620.822,387.24 620.034,386.427C619.362,385.742 618.989,384.736 618.989,383.624C618.989,381.43 620.552,379.829 623.522,379.829Z" style="fill:rgb(83,83,83);fill-rule:nonzero;"/>
    </g>
    <g transform="matrix(4.16667,0,0,4.16667,-744.287,-749.179)">
        <path d="M637.1,385.781C637.1,386.413 637.062,386.646 636.906,386.955C636.726,387.305 636.354,387.576 635.784,387.576C635.215,387.576 634.842,387.305 634.661,386.955C634.505,386.646 634.466,386.413 634.466,385.781L634.466,376.084C634.466,375.361 634.518,375.128 634.7,374.832C634.919,374.483 635.345,374.276 635.784,374.276C636.21,374.276 636.61,374.445 636.855,374.794C636.984,374.987 637.062,375.18 637.087,375.659C637.992,374.703 639.23,374.226 640.535,374.226C641.877,374.226 642.988,374.663 643.764,375.412C644.77,376.395 645.08,377.633 645.08,379.106L645.08,385.781C645.08,386.413 645.041,386.646 644.887,386.955C644.706,387.305 644.331,387.576 643.764,387.576C643.195,387.576 642.82,387.305 642.64,386.955C642.485,386.646 642.446,386.413 642.446,385.781L642.446,379.492C642.446,377.453 641.285,376.601 639.813,376.601C638.341,376.601 637.1,377.479 637.1,379.492L637.1,385.781Z" style="fill:rgb(83,83,83);fill-rule:nonzero;"/>
    </g>
    <g transform="matrix(4.16667,0,0,4.16667,-744.287,-749.179)">
        <path d="M654.644,385.251C657.031,385.251 657.367,383.25 657.367,380.925C657.367,378.601 657.031,376.601 654.644,376.601C652.268,376.601 651.931,378.601 651.931,380.925C651.931,383.25 652.268,385.251 654.644,385.251ZM659.987,385.767C659.987,386.491 659.937,386.722 659.757,387.018C659.535,387.369 659.11,387.575 658.671,387.575C658.246,387.575 657.844,387.409 657.6,387.059C657.457,386.865 657.394,386.671 657.367,386.128C656.399,387.278 655.313,387.626 653.946,387.626C652.629,387.626 651.467,387.188 650.745,386.466C649.479,385.174 649.298,383.082 649.298,380.912C649.298,378.769 649.479,376.679 650.745,375.387C651.467,374.663 652.603,374.226 653.921,374.226C655.313,374.226 656.399,374.56 657.354,375.699L657.354,370.779C657.354,370.145 657.394,369.913 657.548,369.602C657.729,369.253 658.104,368.984 658.671,368.984C659.239,368.984 659.614,369.253 659.795,369.602C659.949,369.913 659.987,370.145 659.987,370.779L659.987,385.767Z" style="fill:rgb(83,83,83);fill-rule:nonzero;"/>
    </g>
    <g transform="matrix(4.16667,0,0,4.16667,-744.287,-749.179)">
        <path d="M363.656,402.655L360.712,410.699L366.601,410.699L363.656,402.655ZM359.848,413.075L358.931,415.541C358.698,416.16 358.583,416.393 358.324,416.599C358.118,416.767 357.859,416.87 357.562,416.87C357.175,416.87 356.787,416.714 356.542,416.456C356.013,415.914 356.18,415.332 356.452,414.609L362.082,399.62C362.274,399.092 362.416,398.87 362.636,398.665C362.908,398.407 363.217,398.278 363.656,398.278C364.096,398.278 364.405,398.407 364.676,398.665C364.895,398.87 365.038,399.092 365.231,399.62L370.861,414.609C371.132,415.332 371.3,415.914 370.77,416.456C370.524,416.714 370.138,416.87 369.75,416.87C369.453,416.87 369.195,416.767 368.988,416.599C368.73,416.393 368.614,416.16 368.382,415.541L367.465,413.075L359.848,413.075Z" style="fill:rgb(83,83,83);fill-rule:nonzero;"/>
    </g>
    <g transform="matrix(4.16667,0,0,4.16667,-744.287,-749.179)">
        <path d="M374.497,400.046C374.497,399.413 374.536,399.181 374.69,398.87C374.871,398.523 375.246,398.252 375.813,398.252C376.381,398.252 376.756,398.523 376.938,398.87C377.091,399.181 377.131,399.413 377.131,400.046L377.131,413.022C377.131,413.926 377.492,414.506 378.461,414.533C378.887,414.544 379.184,414.583 379.417,414.714C379.727,414.882 379.946,415.204 379.946,415.644C379.946,416.082 379.727,416.393 379.417,416.56C379.184,416.689 378.834,416.766 378.305,416.766L378.047,416.766C375.582,416.766 374.497,415.062 374.497,413.138L374.497,400.046Z" style="fill:rgb(83,83,83);fill-rule:nonzero;"/>
    </g>
    <g transform="matrix(4.16667,0,0,4.16667,-744.287,-749.179)">
        <path d="M391.099,405.366C391.099,404.732 391.137,404.499 391.293,404.191C391.474,403.841 391.848,403.571 392.415,403.571C392.983,403.571 393.359,403.841 393.539,404.191C393.693,404.499 393.733,404.732 393.733,405.366L393.733,415.061C393.733,415.786 393.68,416.018 393.501,416.314C393.281,416.663 392.854,416.87 392.415,416.87C391.989,416.87 391.589,416.702 391.344,416.354C391.214,416.16 391.137,415.965 391.111,415.488C390.208,416.444 388.969,416.92 387.665,416.92C386.321,416.92 385.211,416.483 384.437,415.734C383.43,414.752 383.12,413.512 383.12,412.04L383.12,405.366C383.12,404.732 383.158,404.499 383.313,404.191C383.495,403.841 383.869,403.571 384.437,403.571C385.005,403.571 385.379,403.841 385.561,404.191C385.714,404.499 385.754,404.732 385.754,405.366L385.754,411.654C385.754,413.693 386.916,414.545 388.388,414.545C389.859,414.545 391.099,413.668 391.099,411.654L391.099,405.366Z" style="fill:rgb(83,83,83);fill-rule:nonzero;"/>
    </g>
    <g transform="matrix(4.16667,0,0,4.16667,-744.287,-749.179)">
        <path d="M417.279,415.076C417.279,415.707 417.241,415.941 417.086,416.249C416.904,416.599 416.53,416.87 415.963,416.87C415.395,416.87 415.021,416.599 414.839,416.249C414.685,415.941 414.646,415.707 414.646,415.076L414.646,408.787C414.646,406.747 413.484,405.895 412.011,405.895C410.591,405.895 409.3,406.773 409.3,408.658L409.3,415.076C409.3,415.707 409.262,415.941 409.106,416.249C408.926,416.599 408.551,416.87 407.984,416.87C407.416,416.87 407.041,416.599 406.86,416.249C406.705,415.941 406.667,415.707 406.667,415.076L406.667,408.787C406.667,406.747 405.505,405.895 404.033,405.895C402.56,405.895 401.321,406.773 401.321,408.787L401.321,415.076C401.321,415.707 401.282,415.941 401.127,416.249C400.948,416.599 400.573,416.87 400.004,416.87C399.437,416.87 399.062,416.599 398.881,416.249C398.726,415.941 398.688,415.707 398.688,415.076L398.688,405.378C398.688,404.655 398.739,404.423 398.921,404.127C399.139,403.778 399.565,403.571 400.004,403.571C400.431,403.571 400.83,403.739 401.076,404.088C401.205,404.281 401.282,404.474 401.308,404.953C402.186,404.023 403.452,403.52 404.756,403.52C406.382,403.52 407.647,404.165 408.475,405.431C409.532,404.14 410.849,403.52 412.58,403.52C413.923,403.52 415.11,403.958 415.885,404.707C416.892,405.689 417.279,406.927 417.279,408.4L417.279,415.076Z" style="fill:rgb(83,83,83);fill-rule:nonzero;"/>
    </g>
    <g transform="matrix(4.16667,0,0,4.16667,-744.287,-749.179)">
        <path d="M424.736,415.076C424.736,415.707 424.698,415.941 424.543,416.249C424.362,416.599 423.988,416.87 423.42,416.87C422.852,416.87 422.478,416.599 422.297,416.249C422.142,415.941 422.103,415.707 422.103,415.076L422.103,405.378C422.103,404.655 422.153,404.423 422.335,404.127C422.555,403.778 422.98,403.571 423.42,403.571C423.845,403.571 424.246,403.739 424.491,404.088C424.62,404.281 424.698,404.474 424.724,404.953C425.628,403.998 426.867,403.52 428.172,403.52C429.514,403.52 430.624,403.958 431.398,404.707C432.405,405.689 432.716,406.927 432.716,408.4L432.716,415.076C432.716,415.707 432.678,415.941 432.521,416.249C432.341,416.599 431.967,416.87 431.398,416.87C430.83,416.87 430.456,416.599 430.275,416.249C430.121,415.941 430.081,415.707 430.081,415.076L430.081,408.787C430.081,406.747 428.921,405.895 427.448,405.895C425.976,405.895 424.736,406.773 424.736,408.787L424.736,415.076Z" style="fill:rgb(83,83,83);fill-rule:nonzero;"/>
    </g>
    <g transform="matrix(4.16667,0,0,4.16667,-744.287,-749.179)">
        <path d="M439.98,416.249C439.8,416.599 439.426,416.869 438.857,416.869C438.289,416.869 437.915,416.599 437.734,416.249C437.578,415.941 437.54,415.707 437.54,415.075L437.54,405.365C437.54,404.733 437.578,404.5 437.734,404.192C437.915,403.842 438.289,403.571 438.857,403.571C439.426,403.571 439.8,403.842 439.98,404.192C440.136,404.5 440.174,404.733 440.174,405.365L440.174,415.075C440.174,415.707 440.136,415.941 439.98,416.249ZM438.857,397.813C439.734,397.813 440.445,398.523 440.445,399.401C440.445,400.279 439.734,400.99 438.857,400.99C437.979,400.99 437.269,400.279 437.269,399.401C437.269,398.523 437.979,397.813 438.857,397.813Z" style="fill:rgb(83,83,83);fill-rule:nonzero;"/>
    </g>
    <g transform="matrix(4.16667,0,0,4.16667,-744.287,-749.179)">
        <path d="M455.188,407.031L459.216,407.031C461.179,407.031 462.469,405.896 462.469,403.957C462.469,401.982 461.179,400.861 459.216,400.861L455.188,400.861L455.188,407.031ZM452.398,414.972L452.398,400.085C452.398,399.67 452.398,399.181 452.799,398.781C453.198,398.381 453.689,398.381 454.103,398.381L459.372,398.381C462.96,398.381 465.258,400.757 465.258,403.957C465.258,407.159 462.96,409.51 459.372,409.51L455.188,409.51L455.188,414.972C455.188,415.656 455.174,415.875 454.979,416.237C454.773,416.612 454.348,416.869 453.793,416.869C453.237,416.869 452.812,416.612 452.604,416.237C452.411,415.875 452.398,415.656 452.398,414.972Z" style="fill:rgb(83,83,83);fill-rule:nonzero;"/>
    </g>
    <g transform="matrix(4.16667,0,0,4.16667,-744.287,-749.179)">
        <path d="M469.037,400.046C469.037,399.413 469.075,399.181 469.23,398.87C469.411,398.523 469.786,398.252 470.353,398.252C470.921,398.252 471.295,398.523 471.478,398.87C471.632,399.181 471.67,399.413 471.67,400.046L471.67,413.022C471.67,413.926 472.031,414.506 472.999,414.533C473.426,414.544 473.723,414.583 473.957,414.714C474.266,414.882 474.484,415.204 474.484,415.644C474.484,416.082 474.266,416.393 473.957,416.56C473.723,416.689 473.374,416.766 472.845,416.766L472.587,416.766C470.12,416.766 469.037,415.062 469.037,413.138L469.037,400.046Z" style="fill:rgb(83,83,83);fill-rule:nonzero;"/>
    </g>
    <g transform="matrix(4.16667,0,0,4.16667,-744.287,-749.179)">
        <path d="M481.804,414.727C482.746,414.727 483.521,414.621 484.191,413.979C484.606,413.591 484.773,412.995 484.773,412.028L484.773,410.995L481.674,410.995C480.125,410.995 479.337,411.667 479.337,412.879C479.337,414.069 480.138,414.727 481.804,414.727ZM481.301,409.123L484.773,409.123L484.773,408.31C484.773,406.593 483.961,405.754 482.035,405.754C480.99,405.754 480.292,406.05 479.53,406.631C479.196,406.889 478.822,406.98 478.575,406.98C478.305,406.98 478.009,406.865 477.813,406.631C477.595,406.384 477.505,406.165 477.505,405.818C477.505,405.223 478.061,404.693 478.73,404.307C479.648,403.778 480.707,403.52 482.061,403.52C485.574,403.52 487.42,405.056 487.42,408.025L487.42,415.075C487.42,415.721 487.394,415.965 487.228,416.262C487.031,416.624 486.606,416.87 486.102,416.87C485.677,416.87 485.353,416.714 485.146,416.495C484.993,416.314 484.876,416.107 484.851,415.553C483.818,416.56 482.94,416.908 481.34,416.908C479.699,416.908 478.601,416.534 477.813,415.721C477.142,415.037 476.769,414.03 476.769,412.918C476.769,410.725 478.331,409.123 481.301,409.123Z" style="fill:rgb(83,83,83);fill-rule:nonzero;"/>
    </g>
    <g transform="matrix(4.16667,0,0,4.16667,-744.287,-749.179)">
        <path d="M492.788,405.689L492.181,405.689C491.691,405.689 491.496,405.664 491.265,405.533C490.969,405.366 490.801,405.069 490.801,404.681C490.801,404.294 490.969,403.998 491.265,403.828C491.496,403.701 491.691,403.673 492.181,403.673L492.788,403.673L492.788,401.622C492.788,400.99 492.826,400.757 492.981,400.447C493.162,400.098 493.537,399.828 494.105,399.828C494.673,399.828 495.048,400.098 495.229,400.447C495.383,400.757 495.422,400.99 495.422,401.622L495.422,403.673L496.842,403.673C497.331,403.673 497.527,403.701 497.759,403.828C498.055,403.998 498.225,404.294 498.225,404.681C498.225,405.069 498.055,405.366 497.759,405.533C497.527,405.664 497.331,405.689 496.842,405.689L495.422,405.689L495.422,413.021C495.422,413.926 495.784,414.506 496.752,414.533C497.178,414.545 497.476,414.583 497.708,414.714C498.017,414.882 498.237,415.203 498.237,415.644C498.237,416.082 498.017,416.394 497.708,416.56C497.476,416.69 497.126,416.767 496.598,416.767L496.338,416.767C493.873,416.767 492.788,415.061 492.788,413.139L492.788,405.689Z" style="fill:rgb(83,83,83);fill-rule:nonzero;"/>
    </g>
    <g transform="matrix(4.16667,0,0,4.16667,-744.287,-749.179)">
        <path d="M506.227,398.253L506.483,398.253C507.014,398.253 507.361,398.329 507.594,398.458C507.905,398.627 508.124,398.936 508.124,399.375C508.124,399.813 507.905,400.138 507.594,400.304C507.361,400.433 507.065,400.471 506.639,400.485C505.671,400.511 505.31,401.092 505.31,401.996L505.31,403.673L506.741,403.673C507.232,403.673 507.427,403.701 507.66,403.828C507.956,403.998 508.124,404.294 508.124,404.681C508.124,405.069 507.956,405.366 507.66,405.532C507.427,405.664 507.232,405.689 506.741,405.689L505.31,405.689L505.31,415.075C505.31,415.707 505.271,415.941 505.114,416.249C504.935,416.599 504.561,416.87 503.992,416.87C503.424,416.87 503.05,416.599 502.869,416.249C502.715,415.941 502.675,415.707 502.675,415.075L502.675,405.689L502.068,405.689C501.577,405.689 501.385,405.664 501.151,405.532C500.854,405.366 500.688,405.069 500.688,404.681C500.688,404.294 500.854,403.998 501.151,403.828C501.385,403.701 501.577,403.673 502.068,403.673L502.675,403.673L502.675,401.88C502.675,399.957 503.76,398.253 506.227,398.253Z" style="fill:rgb(83,83,83);fill-rule:nonzero;"/>
    </g>
    <g transform="matrix(4.16667,0,0,4.16667,-744.287,-749.179)">
        <path d="M514.047,413.796C514.537,414.3 515.158,414.545 515.958,414.545C516.758,414.545 517.379,414.3 517.867,413.796C518.655,413.008 518.774,411.654 518.774,410.219C518.774,408.787 518.655,407.446 517.867,406.645C517.379,406.14 516.758,405.895 515.958,405.895C515.158,405.895 514.537,406.14 514.047,406.645C513.261,407.446 513.143,408.787 513.143,410.219C513.143,411.654 513.261,413.008 514.047,413.796ZM512.044,405.069C512.896,404.192 514.177,403.52 515.958,403.52C517.739,403.52 519.018,404.192 519.87,405.069C521.135,406.384 521.406,408.012 521.406,410.219C521.406,412.429 521.135,414.055 519.87,415.371C519.018,416.249 517.739,416.921 515.958,416.921C514.177,416.921 512.896,416.249 512.044,415.371C510.769,414.055 510.51,412.429 510.51,410.219C510.51,408.012 510.769,406.384 512.044,405.069Z" style="fill:rgb(83,83,83);fill-rule:nonzero;"/>
    </g>
    <g transform="matrix(4.16667,0,0,4.16667,-744.287,-749.179)">
        <path d="M531.706,403.52C532.675,403.52 533.372,403.7 534.005,404.126C534.457,404.423 534.792,404.811 534.792,405.315C534.792,405.689 534.637,406.037 534.405,406.269C534.185,406.49 533.837,406.631 533.502,406.631C533.229,406.631 532.933,406.541 532.48,406.282C532.043,406.037 531.577,405.896 531.062,405.896C529.563,405.896 528.388,407.005 528.388,408.826L528.388,415.075C528.388,415.707 528.349,415.94 528.194,416.249C528.015,416.598 527.641,416.869 527.071,416.869C526.503,416.869 526.129,416.598 525.948,416.249C525.793,415.94 525.754,415.707 525.754,415.075L525.754,405.377C525.754,404.655 525.806,404.423 525.987,404.126C526.207,403.777 526.632,403.571 527.071,403.571C527.497,403.571 527.898,403.739 528.144,404.088C528.284,404.295 528.349,404.488 528.374,405.043C529.11,404.126 530.338,403.52 531.706,403.52Z" style="fill:rgb(83,83,83);fill-rule:nonzero;"/>
    </g>
    <g transform="matrix(4.16667,0,0,4.16667,-744.287,-749.179)">
        <path d="M556.48,415.076C556.48,415.707 556.441,415.941 556.287,416.249C556.105,416.599 555.731,416.87 555.163,416.87C554.595,416.87 554.221,416.599 554.04,416.249C553.886,415.941 553.848,415.707 553.848,415.076L553.848,408.787C553.848,406.747 552.684,405.895 551.211,405.895C549.792,405.895 548.5,406.773 548.5,408.658L548.5,415.076C548.5,415.707 548.462,415.941 548.308,416.249C548.128,416.599 547.752,416.87 547.185,416.87C546.616,416.87 546.24,416.599 546.061,416.249C545.906,415.941 545.867,415.707 545.867,415.076L545.867,408.787C545.867,406.747 544.706,405.895 543.233,405.895C541.761,405.895 540.521,406.773 540.521,408.787L540.521,415.076C540.521,415.707 540.482,415.941 540.328,416.249C540.147,416.599 539.773,416.87 539.205,416.87C538.637,416.87 538.263,416.599 538.082,416.249C537.926,415.941 537.888,415.707 537.888,415.076L537.888,405.378C537.888,404.655 537.938,404.423 538.12,404.127C538.34,403.778 538.765,403.571 539.205,403.571C539.63,403.571 540.031,403.739 540.275,404.088C540.405,404.281 540.482,404.474 540.508,404.953C541.387,404.023 542.652,403.52 543.957,403.52C545.583,403.52 546.849,404.165 547.675,405.431C548.733,404.14 550.05,403.52 551.781,403.52C553.124,403.52 554.312,403.958 555.086,404.707C556.093,405.689 556.48,406.927 556.48,408.4L556.48,415.076Z" style="fill:rgb(83,83,83);fill-rule:nonzero;"/>
    </g>
    <g transform="matrix(4.16667,0,0,4.16667,-744.287,-749.179)">
        <path d="M290.543,294.811C284.904,292.744 278.935,291.543 272.8,291.286L272.8,273.972L292.979,273.972C292.826,281.387 291.96,288.452 290.543,294.811ZM272.8,323.351L272.8,296.016C278.542,296.277 284.121,297.445 289.383,299.432C285.734,312.402 279.675,321.613 272.8,323.351ZM251.46,299.334C256.736,297.375 262.326,296.24 268.071,296.009L268.071,323.351C261.178,321.608 255.106,312.356 251.46,299.334ZM247.892,273.972L268.071,273.972L268.071,291.279C261.935,291.506 255.956,292.673 250.304,294.714C248.901,288.38 248.043,281.35 247.892,273.972ZM250.315,248.453C255.96,250.507 261.933,251.69 268.071,251.932L268.071,269.242L247.892,269.242C248.043,261.846 248.905,254.8 250.315,248.453ZM268.071,219.862L268.071,247.203C262.327,246.955 256.741,245.805 251.474,243.832C255.121,230.834 261.187,221.603 268.071,219.862ZM289.396,243.83C284.128,245.804 278.543,246.955 272.8,247.203L272.8,219.862C279.683,221.603 285.749,230.834 289.396,243.83ZM292.979,269.242L272.8,269.242L272.8,251.932C278.935,251.69 284.909,250.505 290.554,248.451C291.965,254.798 292.827,261.844 292.979,269.242ZM324.848,273.972L324.848,269.242L297.707,269.242C297.554,261.104 296.618,253.455 295.041,246.61C301.048,243.836 306.601,240.033 311.465,235.285L308.162,231.9C303.899,236.06 299.059,239.424 293.833,241.94C289.095,225.564 280.479,214.828 270.436,214.828C260.392,214.828 251.775,225.565 247.037,241.942C241.755,239.4 236.869,235.989 232.573,231.767L229.257,235.14C234.157,239.956 239.761,243.808 245.83,246.61C244.252,253.454 243.316,261.104 243.164,269.242L216.022,269.242L216.022,273.972L243.164,273.972C243.316,282.087 244.247,289.717 245.816,296.548C239.759,299.326 234.162,303.148 229.264,307.93L232.566,311.315C236.862,307.12 241.747,303.735 247.021,301.213C251.755,317.622 260.38,328.384 270.436,328.384C280.466,328.384 289.072,317.675 293.814,301.334C299.048,303.87 303.893,307.259 308.155,311.449L311.471,308.076C306.605,303.292 301.046,299.457 295.027,296.661C296.612,289.801 297.554,282.133 297.707,273.972L324.848,273.972Z" style="fill:rgb(83,83,83);fill-rule:nonzero;"/>
    </g>
    <g transform="matrix(4.16667,0,0,4.16667,-744.287,-749.179)">
        <path d="M337.521,271.607L303.978,285.501L322.991,331.403L335.351,336.522L316.337,290.62L349.879,276.726L337.521,271.607Z" style="fill:rgb(83,83,83);fill-rule:nonzero;"/>
    </g>
    <g transform="matrix(4.16667,0,0,4.16667,-744.287,-749.179)">
        <path d="M316.337,252.594L330.23,219.051L317.872,224.17L303.978,257.714L349.88,276.726L362.24,271.607L316.337,252.594Z" style="fill:rgb(83,83,83);fill-rule:nonzero;"/>
    </g>
    <g transform="matrix(4.16667,0,0,4.16667,-744.287,-749.179)">
        <path d="M210.638,324.163L205.519,336.522L251.421,317.508L265.315,351.053L270.435,338.694L256.54,305.15L210.638,324.163Z" style="fill:rgb(83,83,83);fill-rule:nonzero;"/>
    </g>
    <g transform="matrix(4.16667,0,0,4.16667,-744.287,-749.179)">
        <path d="M284.329,305.15L265.315,351.053L270.435,363.412L289.448,317.508L322.991,331.403L317.872,319.044L284.329,305.15Z" style="fill:rgb(83,83,83);fill-rule:nonzero;"/>
    </g>
    <g transform="matrix(4.16667,0,0,4.16667,-744.287,-749.179)">
        <path d="M289.448,225.705L275.554,192.162L270.435,204.521L284.329,238.064L330.231,219.05L335.351,206.691L289.448,225.705Z" style="fill:rgb(83,83,83);fill-rule:nonzero;"/>
    </g>
    <g transform="matrix(4.16667,0,0,4.16667,-744.287,-749.179)">
        <path d="M251.422,225.705L217.879,211.812L222.999,224.17L256.54,238.064L275.554,192.162L270.436,179.803L251.422,225.705Z" style="fill:rgb(83,83,83);fill-rule:nonzero;"/>
    </g>
    <g transform="matrix(4.16667,0,0,4.16667,-744.287,-749.179)">
        <path d="M190.989,266.488L178.629,271.608L224.532,290.621L210.638,324.163L222.998,319.044L236.892,285.501L190.989,266.488Z" style="fill:rgb(83,83,83);fill-rule:nonzero;"/>
    </g>
    <g transform="matrix(4.16667,0,0,4.16667,-744.287,-749.179)">
        <path d="M245.422,190.163C247.125,194.275 245.173,198.989 241.061,200.692C236.95,202.395 232.236,200.443 230.533,196.331C228.83,192.22 230.782,187.506 234.894,185.803C239.005,184.099 243.719,186.052 245.422,190.163Z" style="fill:rgb(83,83,83);fill-rule:nonzero;"/>
    </g>
    <g transform="matrix(4.16667,0,0,4.16667,-744.287,-749.179)">
        <path d="M310.337,346.883C312.041,350.995 310.088,355.709 305.977,357.413C301.865,359.116 297.152,357.163 295.448,353.05C293.745,348.94 295.697,344.226 299.809,342.523C303.921,340.82 308.634,342.772 310.337,346.883Z" style="fill:rgb(83,83,83);fill-rule:nonzero;"/>
    </g>
    <g transform="matrix(4.16667,0,0,4.16667,-744.287,-749.179)">
        <path d="M351.879,296.621C355.991,298.324 357.943,303.037 356.24,307.149C354.537,311.261 349.823,313.213 345.711,311.51C341.601,309.807 339.647,305.093 341.351,300.982C343.054,296.87 347.767,294.917 351.879,296.621Z" style="fill:rgb(83,83,83);fill-rule:nonzero;"/>
    </g>
    <g transform="matrix(4.16667,0,0,4.16667,-744.287,-749.179)">
        <path d="M188.991,296.621C193.103,294.917 197.816,296.87 199.52,300.982C201.223,305.093 199.271,309.807 195.159,311.51C191.047,313.213 186.334,311.261 184.63,307.149C182.927,303.037 184.879,298.324 188.991,296.621Z" style="fill:rgb(83,83,83);fill-rule:nonzero;"/>
    </g>
    <g transform="matrix(4.16667,0,0,4.16667,-744.287,-749.179)">
        <path d="M345.711,231.705C349.823,230.002 354.537,231.954 356.24,236.066C357.943,240.178 355.991,244.891 351.879,246.594C347.767,248.298 343.054,246.345 341.351,242.234C339.647,238.122 341.6,233.409 345.711,231.705Z" style="fill:rgb(83,83,83);fill-rule:nonzero;"/>
    </g>
    <g transform="matrix(4.16667,0,0,4.16667,-744.287,-749.179)">
        <path d="M230.533,346.883C232.236,342.772 236.949,340.82 241.061,342.523C245.173,344.226 247.125,348.94 245.422,353.05C243.719,357.163 239.005,359.116 234.893,357.413C230.783,355.709 228.829,350.995 230.533,346.883Z" style="fill:rgb(83,83,83);fill-rule:nonzero;"/>
    </g>
    <g transform="matrix(4.16667,0,0,4.16667,-744.287,-749.179)">
        <path d="M295.448,190.163C297.152,186.052 301.865,184.099 305.977,185.803C310.088,187.506 312.041,192.22 310.337,196.331C308.634,200.443 303.921,202.395 299.809,200.692C295.697,198.989 293.745,194.275 295.448,190.163Z" style="fill:rgb(83,83,83);fill-rule:nonzero;"/>
    </g>
    <g transform="matrix(4.16667,0,0,4.16667,-744.287,-749.179)">
        <path d="M205.52,206.692L224.532,252.595L190.99,266.488L203.348,271.607L236.892,257.714L217.878,211.811L205.52,206.692Z" style="fill:rgb(83,83,83);fill-rule:nonzero;"/>
    </g>
    <g transform="matrix(4.16667,0,0,4.16667,-744.287,-749.179)">
        <path d="M195.159,231.705C199.271,233.409 201.223,238.122 199.52,242.234C197.816,246.345 193.103,248.298 188.991,246.594C184.879,244.891 182.927,240.178 184.63,236.066C186.333,231.954 191.047,230.002 195.159,231.705Z" style="fill:rgb(83,83,83);fill-rule:nonzero;"/>
    </g>
    <g transform="matrix(4.16667,0,0,4.16667,-744.287,-749.179)">
        <path d="M270.643,221.923C243.248,221.809 220.866,244.004 220.752,271.399C220.636,298.794 242.831,321.176 270.227,321.29C297.623,321.406 320.004,299.211 320.119,271.816C320.234,244.42 298.04,222.038 270.643,221.923ZM293.069,326.249C262.939,338.729 228.273,324.37 215.793,294.242C203.314,264.111 217.672,229.446 247.802,216.965C277.932,204.486 312.596,218.845 325.077,248.974C337.556,279.103 323.198,313.769 293.069,326.249Z" style="fill:rgb(83,83,83);fill-rule:nonzero;"/>
    </g>
    <g transform="matrix(4.16667,0,0,4.16667,-744.287,-749.179)">
        <path d="M219.167,239.639L224.533,252.594L233.272,248.974L226.121,231.71L219.167,239.639Z" style="fill:rgb(83,83,83);fill-rule:nonzero;"/>
    </g>
    <g transform="matrix(4.16667,0,0,4.16667,-744.287,-749.179)">
        <path d="M256.788,212.75L251.421,225.705L260.161,229.325L267.312,212.061L256.788,212.75Z" style="fill:rgb(83,83,83);fill-rule:nonzero;"/>
    </g>
    <g transform="matrix(4.16667,0,0,4.16667,-744.287,-749.179)">
        <path d="M302.403,220.339L289.448,225.705L293.068,234.445L310.332,227.293L302.403,220.339Z" style="fill:rgb(83,83,83);fill-rule:nonzero;"/>
    </g>
    <g transform="matrix(4.16667,0,0,4.16667,-744.287,-749.179)">
        <path d="M329.292,257.96L316.337,252.594L312.718,261.333L329.981,268.484L329.292,257.96Z" style="fill:rgb(83,83,83);fill-rule:nonzero;"/>
    </g>
    <g transform="matrix(4.16667,0,0,4.16667,-744.287,-749.179)">
        <path d="M321.703,303.576L316.337,290.62L307.598,294.241L314.748,311.504L321.703,303.576Z" style="fill:rgb(83,83,83);fill-rule:nonzero;"/>
    </g>
    <g transform="matrix(4.16667,0,0,4.16667,-744.287,-749.179)">
        <path d="M284.082,330.464L289.448,317.509L280.708,313.889L273.558,331.154L284.082,330.464Z" style="fill:rgb(83,83,83);fill-rule:nonzero;"/>
    </g>
    <g transform="matrix(4.16667,0,0,4.16667,-744.287,-749.179)">
        <path d="M238.467,322.875L251.422,317.509L247.802,308.77L230.538,315.92L238.467,322.875Z" style="fill:rgb(83,83,83);fill-rule:nonzero;"/>
    </g>
    <g transform="matrix(4.16667,0,0,4.16667,-744.287,-749.179)">
        <path d="M211.577,285.255L224.532,290.621L228.151,281.882L210.888,274.731L211.577,285.255Z" style="fill:rgb(83,83,83);fill-rule:nonzero;"/>
    </g>
</svg>
