<svg width="300" height="200" viewBox="0 0 300 200" fill="none" xmlns="http://www.w3.org/2000/svg">
<g clip-path="url(#clip0_304_86)">
<rect width="300" height="200" fill="white"/>
<rect x="271.958" y="88.6973" width="47.5144" height="45.0265" transform="rotate(45 271.958 88.6973)" stroke="#DDDDDD"/>
<rect x="208.625" y="152.029" width="47.5144" height="45.0265" transform="rotate(45 208.625 152.029)" stroke="#DDDDDD"/>
<rect x="240.293" y="120.363" width="47.5144" height="45.0265" transform="rotate(45 240.293 120.363)" stroke="#DDDDDD"/>
<rect x="176.961" y="183.695" width="47.5144" height="45.0265" transform="rotate(45 176.961 183.695)" stroke="#DDDDDD"/>
<rect x="59.9707" y="193.371" width="38.8067" height="72.3935" transform="rotate(45 59.9707 193.371)" stroke="#DDDDDD"/>
<rect x="57.333" y="-6.30071" width="47.5144" height="21.3912" transform="rotate(45 57.333 -6.30071)" stroke="#DDDDDD"/>
<rect x="90.7568" y="27.1241" width="23.8792" height="21.3912" transform="rotate(45 90.7568 27.1241)" stroke="#DDDDDD"/>
<rect x="-18.3135" y="35.9205" width="47.5144" height="84.8331" transform="rotate(45 -18.3135 35.9205)" stroke="#DDDDDD"/>
<rect x="133.856" y="-49.4013" width="47.5144" height="84.8331" transform="rotate(45 133.856 -49.4013)" stroke="#DDDDDD"/>
<rect x="305.384" y="122.122" width="47.5144" height="45.0265" transform="rotate(45 305.384 122.122)" stroke="#DDDDDD"/>
<rect x="242.053" y="185.455" width="47.5144" height="45.0265" transform="rotate(45 242.053 185.455)" stroke="#DDDDDD"/>
<rect x="273.717" y="153.788" width="47.5144" height="45.0265" transform="rotate(45 273.717 153.788)" stroke="#DDDDDD"/>
<rect x="15.1113" y="69.3455" width="47.5144" height="84.8331" transform="rotate(45 15.1113 69.3455)" stroke="#DDDDDD"/>
<rect x="57.333" y="28.8839" width="46.2704" height="54.9781" transform="rotate(45 57.333 28.8839)" stroke="#DDDDDD"/>
<line x1="-2.12887" y1="-30.2315" x2="90.2303" y2="62.1277" stroke="#DDDDDD"/>
<line x1="-61.6709" y1="-12.3697" x2="51.5293" y2="100.831" stroke="#DDDDDD"/>
<line x1="148.285" y1="2.31442" x2="253.839" y2="107.868" stroke="#DDDDDD"/>
<line x1="135.091" y1="15.5078" x2="240.644" y2="121.061" stroke="#DDDDDD"/>
<line x1="120.138" y1="30.4619" x2="225.691" y2="136.015" stroke="#DDDDDD"/>
<line x1="91.9912" y1="58.6091" x2="197.545" y2="164.162" stroke="#DDDDDD"/>
<line x1="89.3536" y1="61.2483" x2="194.907" y2="166.802" stroke="#DDDDDD"/>
<line x1="71.7598" y1="78.8403" x2="177.313" y2="184.394" stroke="#DDDDDD"/>
<line x1="48.0098" y1="102.59" x2="153.563" y2="208.143" stroke="#DDDDDD"/>
<line x1="50.6495" y1="99.9509" x2="156.203" y2="205.504" stroke="#DDDDDD"/>
<line x1="8.42777" y1="142.173" x2="113.981" y2="247.726" stroke="#DDDDDD"/>
<line x1="254.72" y1="-43.5976" x2="-30.2743" y2="241.396" stroke="#DDDDDD"/>
<line x1="293.119" y1="-39.7749" x2="-9.16266" y2="262.507" stroke="#DDDDDD"/>
<rect x="68.3242" y="134.194" width="12.4396" height="22.3912" transform="rotate(45 68.3242 134.194)" fill="#0390D5"/>
<rect x="210.386" y="33.4541" width="12.4396" height="22.3912" transform="rotate(45 210.386 33.4541)" fill="#CA009E"/>
<path d="M72.3718 138.924L101.839 109.457L176.606 184.224L200.355 160.474L233.78 193.899L371 56.68" stroke="#66CDFF" stroke-width="3"/>
<circle cx="146.644" cy="153.933" r="9.92208" fill="white"/>
<path d="M146.647 144.01C141.174 144.01 136.722 148.463 136.722 153.936C136.722 159.409 141.174 163.861 146.647 163.861C152.12 163.861 156.573 159.409 156.573 153.936C156.573 148.463 152.12 144.01 146.647 144.01ZM144.251 149.585C144.855 148.944 145.706 148.591 146.647 148.591C147.588 148.591 148.431 148.947 149.038 149.591C149.653 150.244 149.953 151.121 149.882 152.063C149.741 153.936 148.29 155.463 146.647 155.463C145.004 155.463 143.551 153.936 143.412 152.063C143.342 151.112 143.641 150.233 144.251 149.585ZM146.647 162.334C145.526 162.335 144.416 162.111 143.383 161.675C142.35 161.238 141.416 160.599 140.635 159.795C141.082 159.157 141.652 158.614 142.311 158.199C143.528 157.419 145.067 156.99 146.647 156.99C148.227 156.99 149.767 157.419 150.981 158.199C151.641 158.614 152.212 159.157 152.66 159.795C151.879 160.599 150.944 161.238 149.911 161.675C148.878 162.111 147.768 162.335 146.647 162.334Z" fill="#0390D5"/>
<circle cx="258.709" cy="170.29" r="9.92208" fill="white"/>
<path d="M258.713 160.367C253.24 160.367 248.787 164.82 248.787 170.293C248.787 175.766 253.24 180.218 258.713 180.218C264.185 180.218 268.638 175.766 268.638 170.293C268.638 164.82 264.185 160.367 258.713 160.367ZM256.316 165.942C256.921 165.301 257.772 164.948 258.713 164.948C259.654 164.948 260.497 165.303 261.104 165.948C261.719 166.6 262.018 167.478 261.947 168.42C261.806 170.293 260.356 171.82 258.713 171.82C257.07 171.82 255.616 170.293 255.478 168.42C255.408 167.469 255.706 166.589 256.316 165.942ZM258.713 178.691C257.591 178.692 256.482 178.468 255.449 178.031C254.416 177.595 253.481 176.956 252.7 176.152C253.147 175.514 253.717 174.971 254.377 174.556C255.593 173.776 257.133 173.347 258.713 173.347C260.293 173.347 261.832 173.776 263.047 174.556C263.707 174.971 264.277 175.514 264.725 176.152C263.944 176.956 263.009 177.595 261.977 178.032C260.944 178.468 259.834 178.692 258.713 178.691Z" fill="#0390D5"/>
<path d="M199.391 54.1253L171.683 81.8331L120.666 30.8156L107.472 44.0098L90.7589 27.2972L75.8055 42.2505L-31.0672 -64.6222" stroke="#CA009E" stroke-width="3"/>
<circle cx="137.325" cy="47.1438" r="9.92208" fill="white"/>
<path d="M137.329 37.2217C131.856 37.2217 127.403 41.6743 127.403 47.1472C127.403 52.62 131.856 57.0726 137.329 57.0726C142.802 57.0726 147.254 52.62 147.254 47.1472C147.254 41.6743 142.802 37.2217 137.329 37.2217ZM134.932 42.7962C135.537 42.1553 136.388 41.8027 137.329 41.8027C138.27 41.8027 139.113 42.1577 139.72 42.8019C140.335 43.4547 140.634 44.3318 140.564 45.2747C140.422 47.1472 138.972 48.6741 137.329 48.6741C135.686 48.6741 134.232 47.1472 134.094 45.2742C134.024 44.3236 134.323 43.4437 134.932 42.7962ZM137.329 55.5456C136.208 55.5464 135.098 55.322 134.065 54.8857C133.032 54.4495 132.097 53.8103 131.316 53.006C131.764 52.368 132.334 51.8256 132.993 51.4103C134.209 50.6306 135.749 50.2011 137.329 50.2011C138.909 50.2011 140.448 50.6306 141.663 51.4103C142.323 51.8254 142.894 52.3679 143.341 53.006C142.56 53.8104 141.626 54.4496 140.593 54.8859C139.56 55.3221 138.45 55.5465 137.329 55.5456Z" fill="#CA009E"/>
<circle cx="52.0002" cy="19.8767" r="9.92208" fill="white"/>
<path d="M52.0036 9.95459C46.5307 9.95459 42.0781 14.4072 42.0781 19.8801C42.0781 25.3529 46.5307 29.8055 52.0036 29.8055C57.4764 29.8055 61.9291 25.3529 61.9291 19.8801C61.9291 14.4072 57.4764 9.95459 52.0036 9.95459ZM49.6072 15.5291C50.2118 14.8882 51.0626 14.5356 52.0036 14.5356C52.9446 14.5356 53.7878 14.8906 54.3948 15.5348C55.0099 16.1876 55.3091 17.0647 55.2384 18.0076C55.0972 19.8801 53.6465 21.4071 52.0036 21.4071C50.3606 21.4071 48.9071 19.8801 48.7688 18.0071C48.6986 17.0566 48.9973 16.1766 49.6072 15.5291ZM52.0036 28.2785C50.8824 28.2793 49.7725 28.0549 48.7397 27.6186C47.7069 27.1824 46.7722 26.5432 45.9911 25.739C46.4384 25.1009 47.0085 24.5585 47.6679 24.1432C48.8842 23.3635 50.4236 22.9341 52.0036 22.9341C53.5836 22.9341 55.123 23.3635 56.3379 24.1432C56.9978 24.5583 57.5684 25.1008 58.0161 25.739C57.2351 26.5433 56.3004 27.1825 55.2675 27.6188C54.2347 28.055 53.1248 28.2794 52.0036 28.2785Z" fill="#CA009E"/>
<rect x="321.723" y="-27.9184" width="47.5144" height="144.015" transform="rotate(45 321.723 -27.9184)" stroke="#DDDDDD"/>
</g>
<defs>
<clipPath id="clip0_304_86">
<rect width="300" height="200" fill="white"/>
</clipPath>
</defs>
</svg>
