<svg xmlns="http://www.w3.org/2000/svg" viewBox="0 0 504 119" width="504" height="119">
	<defs>
		<clipPath clipPathUnits="userSpaceOnUse" id="cp1">
			<path d="M0 -1L504 -1L504 926L0 926Z" />
		</clipPath>
	</defs>
	<style>
		tspan { white-space:pre }
		.shp0 { fill: #ef3340 } 
		.shp1 { fill: #509e2f } 
		.shp2 { fill: #00b5e2 } 
		.shp3 { fill: #0c0c0c } 
	</style>
	<g id="Page 1" clip-path="url(#cp1)">
		<path id="Path 4" class="shp0" d="M29.85,17.81c0,31.42 -26.32,37.3 -26.32,67.5c0,11.79 7.43,22 16.2,23.22c-0.64,-2.15 -0.85,-3.81 -0.85,-6.13c0,-21.8 35.04,-28.56 35.04,-65.74c0,-17.78 -12.54,-32.81 -27.17,-36.38c0,0 3.09,9.65 3.09,17.52z" />
		<path id="Path 5" class="shp1" d="M27.63,103.72c0,6.17 4.37,12.74 10.07,14.88c-0.3,-0.91 -0.44,-1.71 -0.44,-3.05c0,-12.15 35.94,-16.02 35.94,-47.77c0,-8.78 -3.67,-18.31 -10.94,-24.56c-4.92,36.09 -34.63,41.06 -34.63,60.5z" />
		<path id="Path 6" class="shp2" d="M8.8,10.36c0,0 1.73,3.11 1.73,6.58c0,11.15 -10.53,15.4 -10.53,26.73c0,5.35 2.91,9.74 7.02,12.29c0.11,-0.97 0.21,-1.88 0.46,-2.64c2.46,-7.87 14,-16.58 14,-28.93c0,-7.4 -6.14,-13.49 -12.68,-14.03z" />
		<path id="Path 7" class="shp3" d="M123.12,75.12c6.81,6.14 13.27,9.75 22.59,9.75c5.17,0 14.59,-2.18 14.59,-8.98c0,-3.93 -2.96,-5.92 -8.75,-6.9l-16.25,-2.64c-14.46,-2.29 -22.37,-9.97 -22.37,-21.48c0,-18.84 15.25,-26.64 31.92,-26.64c12.94,0 25.67,5.26 34.43,15.02l-14.81,10.63c-5.16,-6.25 -12.73,-9.88 -20.95,-9.88c-4.47,0 -11.07,2.85 -11.07,7.9c0,4.16 3.41,6.25 10.85,7.46l7.48,1.2c15.56,2.52 28.4,7.34 28.4,22.24c0,23.47 -21.18,27.87 -35.75,27.87c-13.26,0 -25.71,-4.29 -36.36,-15.9zM227.19,100.68c-24.91,0 -39.49,-19.31 -39.49,-41.25c0,-21.9 14.58,-41.2 39.49,-41.2c24.88,0 39.45,19.3 39.45,41.2c0,21.93 -14.58,41.25 -39.45,41.25zM227.19,34.66c-11.42,0 -19.96,7.25 -19.96,24.77c0,11.42 4.61,24.8 19.96,24.8c14.46,0 19.95,-12.73 19.95,-24.8c0,-12.27 -5.49,-24.77 -19.95,-24.77zM330.47,46.41c-2.75,-7.25 -9.44,-11.76 -16.26,-11.76c-10.72,0 -19.26,7.27 -19.26,24.79c0,11.41 4.6,24.79 19.96,24.79c5.26,0 12.94,-3.94 16,-10.97l15.46,7.46c-6.69,12.17 -18.31,19.95 -31.46,19.95c-24.91,0 -39.5,-19.3 -39.5,-41.23c0,-21.9 13.61,-41.2 37.95,-41.2c15.34,0 25.42,7.45 32.67,20.37zM376.75,20.44h20.17l29.5,78.03h-20.96l-3.94,-12.27h-28.82l-3.96,12.27h-20.81zM396.8,71.72l-9.63,-32.22h-0.21l-9.66,32.22zM434.16,20.43h39.03c17.55,0 28.31,8.12 28.31,25.64c0,10.1 -6.37,18.19 -16.14,21.05l17.9,31.35h-21.84l-15.35,-28.06h-12.38v28.06h-19.53zM453.69,55.91h17.87c6.25,-0.09 10.42,-3.25 10.42,-10.5c0,-7.25 -4.17,-10.42 -10.42,-10.53h-17.87z" />
	</g>
</svg>