<?xml version="1.0" encoding="UTF-8" standalone="no"?>
<!DOCTYPE svg PUBLIC "-//W3C//DTD SVG 1.1//EN" "http://www.w3.org/Graphics/SVG/1.1/DTD/svg11.dtd">
<svg width="100%" height="100%" viewBox="0 0 4875 1917" version="1.1" xmlns="http://www.w3.org/2000/svg" xmlns:xlink="http://www.w3.org/1999/xlink" xml:space="preserve" xmlns:serif="http://www.serif.com/" style="fill-rule:evenodd;clip-rule:evenodd;stroke-miterlimit:10;">
    <g transform="matrix(1,0,0,1,-15972.1,-242.773)">
        <g id="Page-3" serif:id="Page 3" transform="matrix(7.80368,0,0,6.79173,15972.1,242.773)">
            <rect x="0" y="0" width="624.634" height="282.233" style="fill:none;"/>
            <clipPath id="_clip1">
                <rect x="0" y="0" width="624.634" height="282.233"/>
            </clipPath>
            <g clip-path="url(#_clip1)">
                <g id="Layer-1" serif:id="Layer 1" transform="matrix(1.06787,0,0,1.22698,-23.9212,-35.7454)">
                    <g transform="matrix(1,0,0,1,416.298,65.2249)">
                        <path d="M0,48.361C3.116,62.157 12.313,70.316 29.373,70.316C48.361,70.316 55.63,60.822 55.63,49.548C55.63,37.828 50.438,30.559 27.593,24.922C5.637,19.433 -3.857,12.313 -3.857,-2.67C-3.857,-16.318 6.082,-29.076 28.335,-29.076C51.18,-29.076 60.822,-15.132 62.158,-2.522L53.85,-2.522C51.477,-13.648 44.207,-21.659 27.89,-21.659C12.906,-21.659 4.748,-14.687 4.748,-3.116C4.748,8.307 11.571,12.758 30.707,17.505C59.932,24.774 64.235,36.493 64.235,48.954C64.235,64.234 53.108,77.437 29.076,77.437C3.116,77.437 -6.379,62.305 -8.307,48.361L0,48.361Z" style="fill:rgb(36,34,40);fill-rule:nonzero;stroke:white;stroke-width:13px;"/>
                    </g>
                    <g transform="matrix(1,0,0,1,366.324,252.451)">
                        <path d="M0,-105.847L8.165,-105.847L8.165,-50.807C16.633,-58.972 46.875,-87.399 65.777,-105.847L76.664,-105.847L29.184,-60.786L79.385,0L69.254,0C43.618,-30.931 24.963,-53.439 24.221,-54.366C24.108,-54.507 23.701,-55.033 23.148,-55.037C22.677,-55.041 22.325,-54.663 22.22,-54.555C21.472,-53.787 15.964,-48.968 8.165,-42.187L8.165,0L0,0L0,-105.847Z" style="fill:none;fill-rule:nonzero;stroke:rgb(154,154,154);stroke-width:13px;"/>
                    </g>
                    <g transform="matrix(1,0,0,1,307.703,35.7695)">
                        <path d="M0,107.272L0,0L12.26,0C13.646,0 68.195,85.664 74.938,97.311L75.091,97.311C74.172,81.833 74.334,41.819 74.325,48.579C74.316,55.338 74.325,0 74.325,0L82.753,0L82.753,107.272L71.413,107.272C69.617,107.272 15.631,20.075 7.969,8.275L7.816,8.275C8.582,22.373 8.429,38.004 8.429,57.467L8.429,107.272L0,107.272Z" style="fill:rgb(36,34,40);fill-rule:nonzero;stroke:white;stroke-width:13px;"/>
                    </g>
                    <g transform="matrix(1,0,0,1,344.434,175.315)">
                        <path d="M0,48.38C-4.864,64.749 -16.963,77.137 -38.79,77.137C-68.436,77.137 -84.072,53.538 -84.072,24.487C-84.072,-3.393 -68.73,-28.757 -38.64,-28.757C-16.369,-28.757 -3.243,-16.369 0.15,0.889L-7.818,0.889C-12.538,-12.538 -21.239,-21.383 -39.085,-21.383C-64.749,-21.383 -75.515,2.066 -75.515,24.337C-75.515,46.464 -64.893,69.763 -38.496,69.763C-21.683,69.763 -13.126,61.062 -7.962,48.38L0,48.38Z" style="fill:none;fill-rule:nonzero;stroke:rgb(154,154,154);stroke-width:13px;"/>
                    </g>
                    <g transform="matrix(1,0,0,1,267.112,80.7452)">
                        <path d="M0,17.795C-11.879,-13.883 -17.971,-29.112 -20.103,-36.27L-20.256,-36.27C-22.844,-28.199 -29.697,-9.314 -39.292,17.795L0,17.795ZM-42.186,25.409L-55.74,62.265L-64.117,62.265C-64.117,62.265 -27.254,-44.214 -24.976,-44.342C-22.698,-44.47 -17.535,-44.285 -15.229,-44.342C-12.924,-44.399 25.586,62.265 25.586,62.265L16.6,62.265L2.742,25.409L-42.186,25.409Z" style="fill:rgb(36,34,40);fill-rule:nonzero;stroke:white;stroke-width:13px;"/>
                    </g>
                    <g transform="matrix(1,0,0,1,226.246,190.631)">
                        <path d="M0,17.668C-11.794,-13.784 -17.843,-28.905 -19.96,-36.012L-20.111,-36.012C-22.682,-27.998 -29.486,-9.248 -39.012,17.668L0,17.668ZM-41.885,25.228L-55.343,61.821L-63.66,61.821C-63.66,61.821 -27.06,-43.899 -24.798,-44.026C-22.537,-44.153 -17.41,-43.97 -15.121,-44.026C-12.832,-44.083 25.403,61.821 25.403,61.821L16.482,61.821L2.722,25.228L-41.885,25.228Z" style="fill:none;fill-rule:nonzero;stroke:rgb(154,154,154);stroke-width:13px;"/>
                    </g>
                    <g transform="matrix(1,0,0,1,64.7171,42.4206)">
                        <path d="M0,87.049C0.05,58.516 0.099,29.984 0.149,1.451L-35.657,1.451L-35.657,-6.168L44.488,-6.168L44.488,1.451L8.529,1.451C8.438,29.924 8.345,58.397 8.253,86.869C6.696,86.589 4.713,86.41 2.445,86.645C1.56,86.737 0.743,86.88 0,87.049ZM8.245,89.648C8.241,90.748 8.237,91.847 8.234,92.946M8.234,92.947C8.234,93.037 8.233,93.127 8.233,93.217" style="fill:rgb(36,34,40);fill-rule:nonzero;stroke:white;stroke-width:13px;"/>
                    </g>
                    <g transform="matrix(1,0,0,1,129.281,93.6949)">
                        <path d="M0,-8.227L25.75,-8.227C44.492,-8.227 53.177,-15.236 53.177,-29.254C53.177,-42.357 44.644,-49.824 28.036,-49.824L0,-49.824L0,-8.227ZM0,-0.609L0,49.215L-8.38,49.215L-8.38,-57.442L29.864,-57.442C50.891,-57.442 62.014,-46.167 62.014,-29.406C62.014,-15.846 53.939,-7.009 42.054,-4.418C53.024,-1.827 60.338,5.334 60.338,23.465L60.338,27.579C60.28,31.54 60.26,35.566 60.281,39.654C60.297,42.866 60.337,46.039 60.401,49.172L51.939,49.172C51.887,46.073 51.849,42.951 51.824,39.807C51.791,35.485 51.785,31.206 51.805,26.97L51.805,24.227C51.805,6.705 46.625,-0.609 26.207,-0.609L0,-0.609Z" style="fill:rgb(36,34,40);fill-rule:nonzero;stroke:white;stroke-width:13px;"/>
                    </g>
                    <g transform="matrix(-1,0,0,1,1000,6.648)">
                        <rect x="495.907" y="29.543" width="8.186" height="216.499" style="fill:rgb(36,34,40);stroke:white;stroke-width:13px;"/>
                    </g>
                    <g transform="matrix(1,0,0,1,64.6082,244.587)">
                        <path d="M0,-90.118C0.125,-86.137 0.387,-80.196 1,-72.982C1.687,-64.884 2.554,-54.682 3.814,-54.665C4.968,-54.649 5.98,-63.186 6.661,-68.921C7.698,-77.667 8.045,-84.944 8.165,-90.004L8.165,-51.863L71.674,-51.863L71.674,-97.983L79.839,-97.983L79.839,7.865L71.674,7.865L71.674,-44.303L8.165,-44.303L8.165,7.865L0,7.865L0,-90.118Z" style="fill:none;fill-rule:nonzero;stroke:rgb(154,154,154);stroke-width:13px;"/>
                    </g>
                    <g transform="matrix(-1,0,0,1,68.7489,156.827)">
                        <circle cx="0" cy="-11.777" r="11.777" style="fill:none;stroke:rgb(78,86,87);stroke-width:5px;"/>
                    </g>
                    <g transform="matrix(1,0,0,1,56.9717,133.273)">
                        <path d="M0,11.777C0,5.273 5.273,0 11.777,0C18.281,0 23.554,5.273 23.554,11.777" style="fill:none;fill-rule:nonzero;stroke:white;stroke-width:5px;"/>
                    </g>
                    <g transform="matrix(1,0,0,1,556.613,135.059)">
                        <path d="M0,-91.308L-35.534,-91.308L-35.534,-98.869L44.002,-98.869L44.002,-91.308L8.316,-91.308C8.205,-58.352 8.093,-25.396 7.982,7.561C5.303,7.546 2.625,7.532 -0.053,7.518C-0.035,-25.424 -0.018,-58.366 0,-91.308Z" style="fill:white;fill-rule:nonzero;stroke:white;stroke-width:13px;"/>
                    </g>
                    <g transform="matrix(0,-1,-1,0,68.749,140.17)">
                        <ellipse cx="-4.88" cy="0" rx="4.881" ry="4.88" style="fill:none;stroke:white;stroke-width:3px;"/>
                    </g>
                    <g transform="matrix(1,0,0,1,63.8683,140.169)">
                        <path d="M0,4.881C0,2.185 2.185,0 4.881,0C7.576,0 9.761,2.185 9.761,4.881" style="fill:none;fill-rule:nonzero;stroke:rgb(78,86,87);stroke-width:3px;"/>
                    </g>
                </g>
            </g>
        </g>
    </g>
</svg>
